<svg width="176" height="39" viewBox="0 0 176 39" fill="none" xmlns="http://www.w3.org/2000/svg">
<path d="M70.1846 0.289813C68.2174 1.72302 64.8591 4.21692 60.1099 7.77149C59.4658 8.25596 59.0914 8.4101 58.2546 8.40184C55.0487 8.36331 51.7355 8.35964 48.3149 8.39084C47.1624 8.40185 46.1302 8.59728 45.2181 8.97715C44.084 9.44785 43.9464 10.7609 43.9079 12.0106C43.8528 13.7245 43.8519 15.5376 43.9051 17.4498C43.9198 18.037 44.0262 18.5976 44.2244 19.1316C44.2624 19.2322 44.2663 19.3424 44.2354 19.4454C44.2046 19.5484 44.1408 19.6383 44.0538 19.7014L38.075 24.1057C38.0376 24.1332 37.995 24.153 37.9498 24.1636C37.9045 24.1743 37.8576 24.1757 37.8118 24.1677C37.766 24.1597 37.7223 24.1425 37.6833 24.1172C37.6444 24.0919 37.6109 24.0589 37.5851 24.0203C36.0931 21.8155 36.2115 19.6987 36.1592 16.379C36.0986 12.685 35.9995 8.66335 37.4805 5.46203C38.9476 2.29098 44.6483 2.36255 47.6294 2.29098C52.0025 2.18638 55.9323 2.18179 59.419 2.27722C60.5421 2.30658 61.6422 2.40935 62.7194 2.58552C63.0184 2.63592 63.3256 2.60454 63.6085 2.49468L70.0304 0.00904618C70.0667 -0.00358657 70.1063 -0.0029658 70.1421 0.0108019C70.1779 0.0245695 70.2078 0.0505929 70.2262 0.0842507C70.2447 0.117908 70.2507 0.157025 70.243 0.194657C70.2354 0.232289 70.2147 0.266001 70.1846 0.289813Z" fill="white"/>
<path d="M30.5851 11.204H23.6704C23.6077 11.204 23.5474 11.1788 23.503 11.1339C23.4587 11.089 23.4337 11.0281 23.4337 10.9645C23.4392 10.2516 23.4034 9.58547 22.7786 9.10926C22.2519 8.70738 21.6362 8.49359 20.9316 8.4679C19.0524 8.4 16.8329 8.38165 14.2729 8.41285C12.8416 8.43212 11.3276 8.39633 10.0118 8.66058C8.84105 8.89915 8.15564 9.6185 7.95562 10.8187C7.5574 13.2226 7.55281 15.6991 7.94185 18.248C8.24464 20.2327 9.67327 20.6896 11.5313 20.786C14.0692 20.9144 16.8788 20.9475 19.9599 20.8851C21.3692 20.8575 23.1585 20.7227 23.4998 18.9912C23.5695 18.6389 23.6356 18.2379 23.698 17.7883C23.7132 17.6801 23.767 17.581 23.8494 17.5092C23.9318 17.4374 24.0373 17.3977 24.1467 17.3975H30.4309C30.597 17.3974 30.7566 17.4617 30.8758 17.5768C30.995 17.6919 31.0645 17.8488 31.0695 18.0141C31.1494 20.2547 31.009 22.911 29.7483 24.7635C28.3004 26.8886 23.9044 26.9767 21.6197 27.0179C16.7329 27.106 12.6947 27.0831 9.50535 26.9491C7.25094 26.8555 3.33393 26.5527 1.80897 24.5213C0.168396 22.3329 0.297771 20.0951 0.102333 16.9102C-0.128889 13.1501 -0.327077 5.48128 3.78537 3.44708C5.44246 2.62679 7.53997 2.38731 9.33194 2.34602C14.9886 2.2194 20.1113 2.06801 24.989 2.58C27.5131 2.84425 29.3079 3.74162 30.0951 6.19422C30.6071 7.79075 30.8374 9.39554 30.786 11.0086C30.7846 11.0609 30.7628 11.1106 30.7253 11.1471C30.6877 11.1836 30.6374 11.204 30.5851 11.204Z" fill="white"/>
<path d="M74.8916 18.8922H81.9659C82.0002 18.8924 82.0333 18.9048 82.0591 18.927C82.0849 18.9493 82.1016 18.9799 82.1062 19.0133L82.2852 20.3868C82.298 20.4857 82.3328 20.5805 82.3871 20.6644C82.4414 20.7482 82.5138 20.8189 82.599 20.8713C83.177 21.2218 83.7496 21.4044 84.3166 21.4191C86.7022 21.4796 89.8173 21.4888 93.6618 21.4466C94.6555 21.4356 96.2603 21.4576 96.9072 20.8383C97.0613 20.6896 97.1797 20.4529 97.2623 20.1281C97.755 18.1792 96.1447 17.4112 94.5124 17.4195C94.0408 17.4213 93.6517 17.4186 93.3453 17.4112C89.3393 17.3195 85.2241 17.2461 80.9997 17.191C77.7763 17.1497 75.4311 16.2496 74.7457 12.8198C74.3493 10.8324 74.3658 8.84501 74.7952 6.8576C74.8519 6.59998 74.9416 6.35195 75.0622 6.1199C75.1081 6.03181 75.31 5.65562 75.6678 4.99131C76.1826 4.0334 77.0028 3.57921 78.0488 3.27367C79.9372 2.72498 81.8869 2.41209 83.8982 2.33502C87.1977 2.2084 91.2322 2.1928 96.0016 2.28822C97.5027 2.31942 98.89 2.49926 100.164 2.82774C103.134 3.59022 104.125 6.86861 103.891 9.61024C103.881 9.72635 103.828 9.83461 103.742 9.91362C103.657 9.99262 103.545 10.0366 103.428 10.0369H96.8356C96.7877 10.0371 96.741 10.0217 96.7023 9.99291C96.6636 9.96416 96.6351 9.9236 96.6209 9.87725C96.5842 9.75981 96.4925 9.41665 96.3456 8.84777C96.1282 8.01922 94.8537 7.7935 94.1435 7.78249C92.3543 7.75221 90.3559 7.69441 88.4593 7.81553C86.8463 7.91646 85.3259 7.95866 83.8982 7.94215C83.7092 7.94031 83.2449 8.13666 82.5054 8.53121C82.4264 8.5743 82.3621 8.64049 82.3209 8.72114C82.2384 8.88263 82.1824 9.15147 82.153 9.52767C82.0016 11.5151 83.8432 11.6252 85.3406 11.6362C89.4613 11.672 94.5041 11.4352 98.8918 11.939C100.643 12.1399 102.104 12.5831 103.536 13.9457C104.725 15.077 105.033 17.7994 104.994 19.3188C104.967 20.4419 104.733 21.1658 104.626 22.2228C104.471 23.723 103.417 25.1682 102.143 25.7793C100.886 26.383 99.458 26.7069 97.8596 26.7509C94.7858 26.8372 91.9882 26.9308 89.4668 27.0317C86.7802 27.14 83.5927 27.0602 79.9041 26.7922C79.5279 26.7665 78.9123 26.6262 78.0571 26.3711C74.7154 25.3801 74.4622 22.0054 74.6879 19.0793C74.6914 19.0284 74.7144 18.9808 74.7522 18.946C74.79 18.9112 74.8398 18.892 74.8916 18.8922Z" fill="white"/>
<path d="M126.683 8.94964V26.3931C126.683 26.4506 126.671 26.5075 126.649 26.5606C126.627 26.6137 126.595 26.662 126.554 26.7026C126.514 26.7432 126.465 26.7755 126.412 26.7975C126.359 26.8195 126.302 26.8308 126.245 26.8308H119.176C119.155 26.8308 119.134 26.8267 119.115 26.8186C119.096 26.8106 119.078 26.7989 119.063 26.784C119.048 26.7692 119.037 26.7516 119.029 26.7322C119.021 26.7129 119.016 26.6921 119.016 26.6711V8.92486C119.016 8.87595 118.997 8.82904 118.962 8.79445C118.928 8.75987 118.881 8.74044 118.832 8.74044H108.43C108.393 8.74044 108.358 8.72565 108.332 8.69932C108.307 8.67299 108.292 8.63728 108.292 8.60005V2.67087C108.292 2.61903 108.313 2.56932 108.35 2.53267C108.387 2.49602 108.438 2.47543 108.49 2.47543H136.944C137.062 2.47539 137.175 2.52144 137.26 2.60373C137.344 2.68603 137.393 2.79804 137.396 2.91585C137.432 4.66469 137.435 6.40436 137.404 8.13485C137.397 8.55326 137.199 8.7597 136.812 8.7542C133.593 8.71933 130.28 8.72025 126.872 8.75695C126.822 8.75768 126.774 8.7783 126.738 8.81435C126.702 8.85041 126.683 8.89901 126.683 8.94964Z" fill="white"/>
<path d="M139.46 26.5941L152.849 2.53873C152.861 2.51628 152.88 2.49755 152.902 2.48448C152.924 2.47141 152.95 2.46448 152.976 2.46441H162.734C162.811 2.46429 162.887 2.48494 162.953 2.52419C163.02 2.56344 163.074 2.61981 163.111 2.68737L175.955 26.2995C175.986 26.3577 176.002 26.423 176 26.4891C175.998 26.5551 175.979 26.6195 175.944 26.6758C175.91 26.7322 175.861 26.7784 175.803 26.8099C175.745 26.8415 175.679 26.8572 175.613 26.8556C173.578 26.8078 171.221 26.8051 168.542 26.8473C167.98 26.8556 167.73 26.6684 167.479 26.1564C166.784 24.736 166.233 23.6331 165.828 22.8477C165.768 22.7333 165.678 22.6373 165.568 22.5704C165.458 22.5034 165.332 22.468 165.203 22.4678H150.465C150.352 22.468 150.24 22.4984 150.142 22.5559C150.044 22.6135 149.963 22.6961 149.907 22.7954L147.93 26.3463C147.849 26.4922 147.731 26.6138 147.587 26.6985C147.443 26.7832 147.279 26.8279 147.113 26.828H139.598C139.57 26.8282 139.543 26.8211 139.519 26.8076C139.496 26.794 139.476 26.7744 139.462 26.7507C139.448 26.727 139.44 26.7001 139.44 26.6726C139.44 26.6451 139.447 26.618 139.46 26.5941ZM152.866 17.0974C152.858 17.1113 152.854 17.1269 152.854 17.1428C152.854 17.1586 152.859 17.1741 152.867 17.1878C152.875 17.2014 152.886 17.2127 152.9 17.2205C152.914 17.2283 152.93 17.2324 152.945 17.2323L162.816 17.2488C162.832 17.2487 162.847 17.2445 162.86 17.2369C162.874 17.2292 162.885 17.2182 162.893 17.205C162.901 17.1918 162.906 17.1767 162.906 17.1613C162.907 17.1458 162.903 17.1305 162.896 17.1167L157.977 7.69993C157.969 7.68556 157.958 7.67357 157.944 7.66521C157.93 7.65685 157.914 7.65244 157.897 7.65244C157.881 7.65244 157.865 7.65685 157.851 7.66521C157.837 7.67357 157.825 7.68556 157.818 7.69993L152.866 17.0974Z" fill="white"/>
<path d="M35.1875 29.2971C35.1734 29.298 35.1594 29.2942 35.1476 29.2865C35.1357 29.2788 35.1267 29.2675 35.1218 29.2542C35.1168 29.241 35.1163 29.2265 35.1202 29.2129C35.1241 29.1993 35.1323 29.1874 35.1435 29.1788C38.8834 26.4225 42.3407 23.8497 45.5154 21.4604C46.1467 20.9869 46.8963 20.7676 47.7643 20.8025C50.739 20.9254 53.9009 20.942 57.2499 20.852C58.1987 20.8264 59.0768 20.6841 59.8842 20.4254C60.8972 20.1024 61.4468 19.4298 61.533 18.4077C61.533 18.3967 61.5844 17.4957 61.6872 15.7046C61.811 13.5933 61.7422 11.7298 61.3211 9.86075C61.3121 9.82039 61.3149 9.7784 61.3291 9.73982C61.3432 9.70124 61.3682 9.66773 61.4009 9.64329L67.3576 5.25833C67.398 5.22856 67.4442 5.20774 67.4932 5.19726C67.5422 5.18678 67.5929 5.18689 67.6419 5.19757C67.6909 5.20825 67.737 5.22927 67.7773 5.25921C67.8175 5.28915 67.8508 5.32732 67.8751 5.37119C68.6404 6.76219 69.0955 8.26421 69.2404 9.87726C69.5524 13.3584 69.4735 16.8148 69.0037 20.2465C68.8138 21.642 68.321 23.379 67.2695 24.6397C66.1822 25.9417 63.6113 26.5362 61.9294 26.7097C57.5747 27.1528 53.0191 27.0895 48.6589 27.062C46.5807 27.0482 44.1363 26.839 42.4022 26.7427C42.2297 26.7336 42.0572 26.7608 41.8957 26.8225C40.0789 27.5272 38.1108 28.3007 35.9913 29.143C35.7931 29.2219 35.5252 29.2733 35.1875 29.2971Z" fill="#00B2FF"/>
<path d="M145.555 31.8846L143.113 38.1496C143.105 38.1709 143.091 38.1895 143.073 38.2035C143.055 38.2176 143.034 38.2265 143.011 38.2295L142.108 38.3451C142.08 38.3488 142.051 38.343 142.027 38.3285C142.003 38.3141 141.984 38.2918 141.973 38.2652L139.537 31.9727C139.53 31.9547 139.527 31.9352 139.528 31.9158C139.53 31.8964 139.536 31.8776 139.545 31.8608C139.555 31.8441 139.569 31.8298 139.585 31.8191C139.601 31.8084 139.62 31.8017 139.639 31.7993L140.41 31.7002C140.438 31.6964 140.467 31.7023 140.491 31.7167C140.516 31.7312 140.535 31.7535 140.545 31.78L142.428 36.6467C142.437 36.6707 142.453 36.6914 142.474 36.7059C142.495 36.7205 142.52 36.7283 142.546 36.7283C142.572 36.7283 142.597 36.7205 142.618 36.7059C142.639 36.6914 142.655 36.6707 142.664 36.6467L144.514 31.8984C144.522 31.8772 144.536 31.8585 144.554 31.8445C144.572 31.8304 144.593 31.8215 144.616 31.8186L145.42 31.714C145.441 31.7111 145.464 31.7139 145.484 31.7222C145.504 31.7304 145.522 31.7438 145.536 31.761C145.549 31.7782 145.558 31.7986 145.561 31.8203C145.565 31.842 145.562 31.8641 145.555 31.8846Z" fill="white"/>
<path d="M164.564 36.0934C164.536 36.1098 164.512 36.132 164.493 36.1585C164.474 36.185 164.46 36.2153 164.454 36.2473C164.447 36.2792 164.448 36.3122 164.455 36.3441C164.462 36.3759 164.476 36.4059 164.496 36.432L165.588 37.9212C165.611 37.9523 165.625 37.9891 165.628 38.0276C165.631 38.0661 165.624 38.1047 165.607 38.1392C165.589 38.1737 165.563 38.2027 165.53 38.223C165.497 38.2433 165.459 38.2541 165.42 38.2542L164.925 38.2515C164.797 38.2513 164.671 38.2167 164.561 38.1513C164.451 38.0859 164.361 37.9921 164.3 37.8799L163.612 36.6054C163.579 36.5455 163.53 36.4956 163.471 36.4607C163.412 36.4259 163.345 36.4074 163.276 36.4072L161.726 36.4017C161.707 36.4013 161.687 36.4049 161.669 36.4123C161.651 36.4196 161.634 36.4305 161.62 36.4444C161.607 36.4583 161.596 36.4748 161.588 36.493C161.581 36.5112 161.577 36.5307 161.578 36.5504L161.575 37.979C161.575 38.0622 161.542 38.142 161.483 38.2009C161.424 38.2597 161.344 38.2928 161.261 38.2928L160.895 38.29C160.85 38.29 160.805 38.281 160.763 38.2636C160.721 38.2461 160.683 38.2205 160.651 38.1883C160.619 38.156 160.594 38.1178 160.576 38.0757C160.559 38.0336 160.551 37.9886 160.551 37.9432L160.567 31.8819C160.567 31.8517 160.58 31.8227 160.601 31.8011C160.623 31.7795 160.652 31.767 160.683 31.7663C161.845 31.7406 162.757 31.7479 163.419 31.7883C165.007 31.8846 165.963 32.9802 165.643 34.5437C165.504 35.2318 165.144 35.7484 164.564 36.0934ZM161.619 32.8398L161.575 35.2346C161.575 35.2603 161.579 35.2857 161.589 35.3096C161.598 35.3334 161.612 35.3552 161.63 35.3736C161.648 35.392 161.669 35.4067 161.693 35.4169C161.717 35.427 161.742 35.4324 161.768 35.4328L163.328 35.4603C163.675 35.4662 164.011 35.3351 164.26 35.0956C164.51 34.8562 164.654 34.528 164.661 34.1831L164.663 34.0014C164.667 33.8304 164.636 33.6605 164.573 33.5013C164.51 33.3421 164.417 33.1967 164.297 33.0735C164.178 32.9503 164.035 32.8516 163.877 32.7832C163.72 32.7148 163.55 32.6779 163.378 32.6746L161.817 32.6499C161.766 32.6491 161.716 32.6686 161.679 32.7042C161.642 32.7397 161.62 32.7884 161.619 32.8398Z" fill="white"/>
<path d="M173.232 38.2983C173.227 38.2983 173.138 38.2937 172.965 38.2845C172.895 38.281 172.829 38.2508 172.781 38.2002C172.732 38.1495 172.705 38.0822 172.704 38.012V36.198C172.704 36.1293 172.687 36.0613 172.654 35.9998L170.538 32.1076C170.516 32.0665 170.505 32.0204 170.506 31.9739C170.507 31.9274 170.519 31.8819 170.543 31.842C170.567 31.8021 170.6 31.7691 170.64 31.7461C170.68 31.7232 170.725 31.7112 170.772 31.7112H170.904C171.057 31.7113 171.207 31.7521 171.339 31.8295C171.471 31.9069 171.58 32.018 171.655 32.1516C172.264 33.238 172.76 34.1088 173.142 34.7639C173.162 34.7988 173.187 34.8162 173.219 34.8162C173.25 34.8162 173.276 34.7988 173.296 34.7639C173.672 34.1051 174.161 33.2307 174.763 32.1406C174.837 32.0063 174.944 31.894 175.075 31.8151C175.207 31.7363 175.356 31.6938 175.509 31.6919H175.641C175.687 31.6912 175.733 31.7026 175.773 31.725C175.814 31.7474 175.848 31.78 175.872 31.8197C175.896 31.8593 175.909 31.9047 175.911 31.9513C175.912 31.9979 175.902 32.0442 175.88 32.0856L173.794 35.9943C173.761 36.0566 173.744 36.1256 173.744 36.1953L173.761 38.0065C173.762 38.0777 173.735 38.1464 173.686 38.1982C173.637 38.25 173.57 38.281 173.499 38.2845C173.327 38.2937 173.238 38.2983 173.232 38.2983Z" fill="white"/>
<path d="M0.944656 31.9837C0.944652 31.9229 0.968637 31.8645 1.01141 31.8212C1.05417 31.7779 1.11228 31.7532 1.17313 31.7525C2.01819 31.7387 4.39372 31.513 5.33787 32.3058C6.70594 33.4453 6.04805 36.3053 4.03863 36.3632C2.8605 36.3999 2.2228 36.42 2.12554 36.4237C2.08465 36.4258 2.04613 36.4436 2.01795 36.4733C1.98977 36.503 1.97409 36.5424 1.97415 36.5834V38.0257C1.97415 38.0917 1.94814 38.155 1.90176 38.2019C1.85537 38.2488 1.79236 38.2755 1.72641 38.2762H1.21166C1.14279 38.2755 1.07698 38.2476 1.02853 38.1987C0.980083 38.1497 0.95291 38.0836 0.952914 38.0147L0.944656 31.9837ZM1.97139 32.8095V35.3144C1.97139 35.3494 1.98531 35.383 2.01009 35.4078C2.03487 35.4326 2.06848 35.4465 2.10352 35.4465H3.7551C4.08947 35.4465 4.41013 35.3178 4.64656 35.0886C4.88299 34.8594 5.01581 34.5485 5.01581 34.2243V33.8995C5.01581 33.5754 4.88299 33.2645 4.64656 33.0353C4.41013 32.8061 4.08947 32.6774 3.7551 32.6774H2.10352C2.06848 32.6774 2.03487 32.6913 2.01009 32.7161C1.98531 32.7408 1.97139 32.7745 1.97139 32.8095Z" fill="white"/>
<path d="M15.2171 36.0989C15.1889 36.1153 15.1644 36.1375 15.1454 36.164C15.1264 36.1905 15.1132 36.2208 15.1067 36.2527C15.1002 36.2847 15.1005 36.3177 15.1077 36.3496C15.1149 36.3814 15.1287 36.4114 15.1483 36.4375L16.2411 37.9294C16.2633 37.9607 16.2765 37.9975 16.2792 38.0358C16.2819 38.0741 16.274 38.1124 16.2564 38.1466C16.2387 38.1807 16.2121 38.2093 16.1793 38.2292C16.1465 38.2492 16.1088 38.2597 16.0704 38.2597H15.5749C15.4466 38.2593 15.3209 38.2245 15.2109 38.1592C15.101 38.0938 15.0109 38.0002 14.9501 37.8881L14.2619 36.6109C14.2293 36.5505 14.1809 36.5 14.1219 36.4646C14.0628 36.4293 13.9952 36.4104 13.9261 36.41L12.3736 36.4072C12.3542 36.4068 12.3349 36.4103 12.3169 36.4175C12.2989 36.4247 12.2825 36.4354 12.2687 36.4489C12.2548 36.4625 12.2438 36.4787 12.2363 36.4966C12.2288 36.5145 12.225 36.5337 12.225 36.5531L12.2222 37.9845C12.2222 38.0677 12.1891 38.1475 12.1303 38.2064C12.0715 38.2652 11.9916 38.2983 11.9084 38.2983L11.5423 38.2955C11.4508 38.2948 11.3633 38.2579 11.2988 38.193C11.2344 38.128 11.1982 38.0402 11.1982 37.9487L11.2147 31.8819C11.2147 31.8509 11.2268 31.8212 11.2484 31.7991C11.27 31.777 11.2994 31.7642 11.3304 31.7635C12.4938 31.7378 13.4068 31.7461 14.0692 31.7883C15.663 31.8846 16.6182 32.9829 16.2961 34.5464C16.1567 35.2346 15.797 35.7521 15.2171 36.0989ZM12.2552 32.815L12.2387 35.2979C12.2387 35.3368 12.254 35.3742 12.2813 35.402C12.3086 35.4298 12.3457 35.4458 12.3846 35.4465L14.0004 35.4603C14.1702 35.4617 14.3386 35.4296 14.4959 35.3658C14.6533 35.3019 14.7965 35.2076 14.9175 35.0882C15.0384 34.9688 15.1347 34.8266 15.2007 34.6699C15.2668 34.5132 15.3013 34.3449 15.3024 34.1748V33.9821C15.3046 33.6395 15.1711 33.3099 14.9311 33.0658C14.6912 32.8218 14.3644 32.683 14.0224 32.6801L12.4066 32.6691C12.3871 32.6688 12.3677 32.6722 12.3495 32.6794C12.3314 32.6865 12.3148 32.6971 12.3007 32.7107C12.2867 32.7242 12.2754 32.7404 12.2676 32.7583C12.2598 32.7762 12.2556 32.7955 12.2552 32.815Z" fill="white"/>
<path d="M21.3478 34.9449C21.3644 34.0829 21.7311 33.2629 22.3673 32.6654C23.0035 32.0678 23.8571 31.7416 24.7403 31.7586C25.1776 31.767 25.609 31.8594 26.0099 32.0305C26.4108 32.2016 26.7733 32.448 27.0768 32.7558C27.3802 33.0635 27.6186 33.4266 27.7784 33.8241C27.9382 34.2217 28.0162 34.646 28.008 35.0728C27.9915 35.9348 27.6247 36.7548 26.9885 37.3524C26.3523 37.9499 25.4987 38.2761 24.6155 38.2591C24.1782 38.2507 23.7468 38.1583 23.3459 37.9872C22.945 37.8161 22.5825 37.5697 22.2791 37.2619C21.9756 36.9542 21.7372 36.5912 21.5774 36.1936C21.4177 35.7961 21.3396 35.3718 21.3478 34.9449ZM24.637 32.6557C24.0327 32.6663 23.4573 32.9231 23.0376 33.3698C22.6179 33.8165 22.3882 34.4165 22.3991 35.0376C22.4099 35.6588 22.6604 36.2503 23.0954 36.6821C23.5305 37.1139 24.1144 37.3505 24.7188 37.34C25.3232 37.3294 25.8985 37.0726 26.3182 36.6259C26.7379 36.1792 26.9676 35.5792 26.9567 34.9581C26.9459 34.3369 26.6954 33.7454 26.2604 33.3136C25.8254 32.8818 25.2414 32.6452 24.637 32.6557Z" fill="white"/>
<path d="M43.8969 32.6994L43.7565 33.0655C43.7437 33.098 43.7243 33.1276 43.6995 33.1522C43.6748 33.1769 43.6452 33.1962 43.6126 33.2089C43.58 33.2215 43.5452 33.2273 43.5102 33.2259C43.4753 33.2244 43.4411 33.2157 43.4097 33.2004C42.4205 32.7159 41.6617 32.6242 41.1332 32.9251C40.9873 33.0082 40.8755 33.1375 40.8212 33.2862C40.7668 33.4349 40.7741 33.5915 40.8414 33.7234C41.3672 34.7529 44.1171 34.2932 44.0923 36.432C44.085 37.2137 43.6803 37.7688 42.8784 38.0973C41.937 38.4809 40.8644 38.3056 39.6606 37.5716C39.5957 37.5319 39.5393 37.4797 39.4949 37.418C39.4505 37.3563 39.4189 37.2863 39.402 37.2121C39.3851 37.138 39.3831 37.0612 39.3964 36.9863C39.4096 36.9114 39.4376 36.8399 39.4789 36.7761L39.5367 36.688C39.5698 36.6366 39.6135 36.593 39.6649 36.5598C39.7163 36.5267 39.7742 36.5049 39.8348 36.4958C39.8954 36.4867 39.9573 36.4905 40.0165 36.507C40.0757 36.5236 40.1307 36.5524 40.1781 36.5916C40.9873 37.2688 41.7984 37.422 42.6114 37.0513C42.7351 36.9948 42.8338 36.8887 42.8909 36.7508C42.948 36.613 42.9601 36.4519 42.9252 36.2944C42.6582 35.1135 39.8918 35.6667 39.7074 33.7509C39.6 32.6196 40.335 31.9534 41.392 31.7965C42.2159 31.6736 42.9986 31.8241 43.74 32.248C43.8159 32.2919 43.8735 32.3617 43.9022 32.4446C43.931 32.5274 43.9291 32.6178 43.8969 32.6994Z" fill="white"/>
<path d="M49.7049 31.7387C50.5527 31.725 52.9393 31.502 53.8862 32.2975C55.257 33.4454 54.5936 36.3136 52.5759 36.3714C51.3941 36.4063 50.7546 36.4256 50.6573 36.4292C50.6159 36.4307 50.5767 36.4481 50.548 36.4779C50.5192 36.5077 50.5031 36.5475 50.5032 36.5889V38.0368C50.5032 38.0697 50.4967 38.1023 50.4841 38.1326C50.4715 38.163 50.4531 38.1906 50.4298 38.2139C50.4065 38.2372 50.3789 38.2556 50.3485 38.2682C50.3182 38.2808 50.2856 38.2873 50.2527 38.2873H49.7379C49.6686 38.2873 49.6021 38.2597 49.553 38.2107C49.504 38.1616 49.4764 38.0951 49.4764 38.0258V31.97C49.4764 31.9091 49.5004 31.8507 49.5432 31.8074C49.586 31.7642 49.6441 31.7395 49.7049 31.7387ZM50.5224 32.7435L50.5114 35.364C50.5114 35.3839 50.5192 35.4031 50.533 35.4175C50.5469 35.4319 50.5658 35.4403 50.5858 35.441L52.2483 35.4493C52.4212 35.4504 52.5925 35.4192 52.7526 35.3574C52.9126 35.2956 53.0583 35.2045 53.1813 35.0892C53.3042 34.9739 53.402 34.8368 53.4691 34.6855C53.5362 34.5343 53.5713 34.372 53.5724 34.2079V33.9326C53.5745 33.6012 53.4379 33.2825 53.1927 33.0466C52.9475 32.8107 52.6138 32.6769 52.2649 32.6746L50.6023 32.6664C50.5919 32.666 50.5816 32.6677 50.5719 32.6714C50.5623 32.6751 50.5534 32.6808 50.546 32.688C50.5385 32.6952 50.5326 32.7038 50.5286 32.7133C50.5245 32.7229 50.5224 32.7331 50.5224 32.7435Z" fill="white"/>
<path d="M65.9235 34.9972C65.925 35.4241 65.8404 35.8472 65.6747 36.2422C65.509 36.6372 65.2653 36.9964 64.9576 37.2993C64.6499 37.6023 64.2841 37.843 63.8813 38.0078C63.4784 38.1726 63.0463 38.2582 62.6097 38.2597C61.7278 38.2628 60.8808 37.9232 60.2551 37.3158C59.6294 36.7083 59.2762 35.8826 59.2732 35.0205C59.2717 34.5936 59.3562 34.1705 59.5219 33.7755C59.6876 33.3806 59.9313 33.0213 60.239 32.7184C60.5468 32.4154 60.9125 32.1747 61.3153 32.0099C61.7182 31.8451 62.1503 31.7595 62.587 31.758C63.4689 31.7549 64.3158 32.0945 64.9415 32.702C65.5672 33.3094 65.9205 34.1351 65.9235 34.9972ZM64.9243 34.9978C64.9243 34.3846 64.6807 33.7965 64.2471 33.3629C63.8134 32.9292 63.2253 32.6856 62.6121 32.6856C61.9988 32.6856 61.4107 32.9292 60.9771 33.3629C60.5435 33.7965 60.2999 34.3846 60.2999 34.9978C60.2999 35.6111 60.5435 36.1992 60.9771 36.6328C61.4107 37.0665 61.9988 37.3101 62.6121 37.3101C63.2253 37.3101 63.8134 37.0665 64.2471 36.6328C64.6807 36.1992 64.9243 35.6111 64.9243 34.9978Z" fill="white"/>
<path d="M75.0182 36.443L76.1578 37.9872C76.1742 38.0098 76.1845 38.0362 76.1877 38.0639C76.1909 38.0916 76.1869 38.1197 76.1761 38.1454C76.1653 38.1712 76.1481 38.1937 76.1261 38.2108C76.1041 38.2279 76.078 38.2391 76.0504 38.2432C75.6852 38.2965 75.3714 38.2809 75.109 38.1964C75.0472 38.177 74.9959 38.1355 74.9659 38.0808L74.1483 36.5751C74.1184 36.521 74.0746 36.4759 74.0213 36.4445C73.9681 36.413 73.9074 36.3963 73.8456 36.3962H72.5215C72.4756 36.3962 72.4314 36.4145 72.3989 36.447C72.3664 36.4795 72.3481 36.5236 72.3481 36.5696V38.0836C72.3481 38.1391 72.3258 38.1923 72.286 38.2315C72.2463 38.2707 72.1924 38.2928 72.1362 38.2928H71.5526C71.4847 38.2928 71.4196 38.2658 71.3716 38.2178C71.3236 38.1698 71.2966 38.1047 71.2966 38.0368V31.8819C71.2965 31.8543 71.3068 31.8278 71.3252 31.8079C71.3437 31.7879 71.3689 31.7759 71.3957 31.7745C72.4252 31.714 73.3262 31.7204 74.0988 31.7938C76.6092 32.0305 76.8542 34.9511 75.0622 36.1925C75.0426 36.2061 75.0259 36.2235 75.013 36.2435C75.0001 36.2636 74.9913 36.286 74.9872 36.3093C74.9831 36.3326 74.9838 36.3565 74.9891 36.3795C74.9944 36.4024 75.0043 36.424 75.0182 36.443ZM72.3922 32.8756L72.2848 35.152C72.283 35.1871 72.288 35.2222 72.2998 35.2553C72.3115 35.2884 72.3297 35.3189 72.3532 35.3449C72.3767 35.371 72.4051 35.3922 72.4369 35.4073C72.4686 35.4224 72.503 35.431 72.5381 35.4328L73.6529 35.4851C73.8429 35.4941 74.0326 35.4688 74.2113 35.4109C74.39 35.3529 74.554 35.2633 74.6941 35.1473C74.8342 35.0312 74.9475 34.891 75.0277 34.7345C75.1079 34.578 75.1533 34.4084 75.1613 34.2354L75.1696 34.0592C75.1859 33.71 75.0491 33.3679 74.7895 33.1083C74.5298 32.8486 74.1685 32.6926 73.785 32.6746L72.6729 32.6223C72.6379 32.6205 72.6028 32.6256 72.5697 32.6373C72.5366 32.649 72.5061 32.6672 72.48 32.6907C72.4539 32.7142 72.4327 32.7427 72.4177 32.7744C72.4026 32.8061 72.3939 32.8405 72.3922 32.8756Z" fill="white"/>
<path d="M83.6064 31.7525C84.3258 31.736 85.0626 31.7415 85.8168 31.769C85.9188 31.7719 86.0157 31.8142 86.0871 31.8871C86.1585 31.96 86.1988 32.0578 86.1994 32.1599V32.2865C86.1994 32.3858 86.1597 32.481 86.089 32.5512C86.0183 32.6214 85.9223 32.6609 85.8223 32.6609H84.2808C84.2624 32.6609 84.2442 32.6645 84.2271 32.6715C84.2101 32.6786 84.1946 32.6889 84.1816 32.702C84.1685 32.715 84.1582 32.7305 84.1511 32.7475C84.1441 32.7646 84.1405 32.7828 84.1405 32.8012V37.99C84.1407 38.0509 84.12 38.11 84.082 38.1576C84.0439 38.2052 83.9907 38.2383 83.9313 38.2515C83.8597 38.2662 83.7551 38.2735 83.6175 38.2735C83.4817 38.2753 83.3771 38.268 83.3037 38.2515C83.2446 38.2384 83.1918 38.2057 83.1538 38.1587C83.1158 38.1117 83.0949 38.0532 83.0945 37.9927L83.0752 32.804C83.0752 32.7853 83.0715 32.7669 83.0642 32.7496C83.057 32.7324 83.0464 32.7168 83.0331 32.7037C83.0198 32.6907 83.004 32.6804 82.9866 32.6735C82.9693 32.6666 82.9507 32.6632 82.932 32.6636L81.3906 32.6691C81.291 32.6691 81.1955 32.6301 81.1249 32.5605C81.0542 32.4908 81.0142 32.3963 81.0135 32.2975V32.1709C81.0134 32.0688 81.053 31.9707 81.1238 31.8973C81.1947 31.8239 81.2913 31.7808 81.3933 31.7773C82.1475 31.7479 82.8853 31.7396 83.6064 31.7525Z" fill="white"/>
<path d="M101.642 36.1099C101.613 36.1266 101.589 36.1491 101.57 36.1758C101.551 36.2026 101.538 36.233 101.531 36.2652C101.525 36.2974 101.525 36.3306 101.532 36.3627C101.539 36.3947 101.553 36.4249 101.573 36.4512L102.682 37.9569C102.705 37.9885 102.719 38.0257 102.722 38.0645C102.725 38.1033 102.717 38.1422 102.699 38.1768C102.682 38.2115 102.655 38.2407 102.622 38.2611C102.589 38.2816 102.55 38.2925 102.512 38.2928H102.011C101.881 38.2927 101.753 38.2578 101.642 38.192C101.53 38.1261 101.439 38.0316 101.377 37.9184L100.678 36.6302C100.645 36.5694 100.596 36.5186 100.536 36.4833C100.476 36.4479 100.407 36.4293 100.337 36.4292H98.768C98.7286 36.4292 98.6908 36.4449 98.6629 36.4728C98.635 36.5006 98.6193 36.5385 98.6193 36.5779V38.0258C98.6193 38.0673 98.6112 38.1085 98.5953 38.1469C98.5793 38.1853 98.556 38.2202 98.5266 38.2496C98.4972 38.279 98.4623 38.3023 98.4239 38.3182C98.3855 38.3341 98.3444 38.3423 98.3028 38.3423H97.9339C97.8412 38.3423 97.7523 38.3055 97.6867 38.2399C97.6212 38.1744 97.5844 38.0854 97.5844 37.9927V31.8571C97.5843 31.8262 97.5964 31.7965 97.618 31.7744C97.6396 31.7522 97.669 31.7394 97.7 31.7387C98.8763 31.7094 99.7993 31.7149 100.469 31.7552C102.079 31.8488 103.048 32.9554 102.729 34.5382C102.59 35.2337 102.227 35.7576 101.642 36.1099ZM98.5753 32.8068L98.5643 35.3062C98.5643 35.3412 98.5782 35.3748 98.603 35.3996C98.6278 35.4244 98.6614 35.4383 98.6964 35.4383L100.422 35.4438C100.595 35.4445 100.767 35.4121 100.927 35.3485C101.088 35.2848 101.233 35.1912 101.356 35.0728C101.479 34.9545 101.577 34.8138 101.644 34.6587C101.711 34.5037 101.746 34.3374 101.746 34.1693V33.9656C101.748 33.6262 101.61 33.3 101.364 33.059C101.118 32.8179 100.783 32.6816 100.433 32.6801L98.7074 32.6746C98.6724 32.6746 98.6388 32.6885 98.614 32.7133C98.5892 32.7381 98.5753 32.7717 98.5753 32.8068Z" fill="white"/>
<path d="M112.476 34.9924C112.476 35.1575 112.425 35.2887 112.322 35.386C112.285 35.4214 112.234 35.4412 112.182 35.4411H109.539C109.512 35.4411 109.486 35.4463 109.461 35.4566C109.436 35.4668 109.414 35.4818 109.395 35.5007C109.376 35.5196 109.361 35.5421 109.351 35.5668C109.341 35.5915 109.335 35.618 109.335 35.6447V37.1615C109.335 37.2169 109.357 37.2701 109.397 37.3094C109.436 37.3486 109.489 37.3707 109.545 37.3707H112.531C112.628 37.3706 112.72 37.4084 112.789 37.4758C112.858 37.5432 112.898 37.6349 112.9 37.7313L112.903 37.8331C112.904 37.8891 112.894 37.9447 112.873 37.9968C112.852 38.0488 112.821 38.0963 112.782 38.1362C112.742 38.1762 112.695 38.208 112.643 38.2297C112.591 38.2513 112.535 38.2625 112.479 38.2625H108.427C108.413 38.2625 108.399 38.2598 108.386 38.2546C108.373 38.2493 108.361 38.2416 108.351 38.2319C108.341 38.2222 108.333 38.2106 108.328 38.1979C108.322 38.1853 108.32 38.1716 108.32 38.1579C108.318 37.9689 108.312 36.9211 108.303 35.0144C108.292 33.1096 108.287 32.0626 108.287 31.8736C108.286 31.8599 108.289 31.8462 108.294 31.8334C108.299 31.8205 108.306 31.8088 108.316 31.7988C108.326 31.7889 108.337 31.7809 108.35 31.7753C108.363 31.7697 108.377 31.7666 108.391 31.7663L112.443 31.7222C112.5 31.7215 112.556 31.732 112.608 31.7532C112.661 31.7744 112.708 31.8058 112.748 31.8456C112.788 31.8853 112.82 31.9327 112.841 31.9848C112.863 32.0369 112.873 32.0927 112.873 32.1489L112.87 32.2507C112.868 32.3467 112.83 32.4383 112.762 32.5061C112.694 32.5739 112.602 32.6127 112.506 32.6141L109.52 32.6471C109.492 32.6475 109.465 32.6532 109.44 32.6641C109.415 32.6749 109.392 32.6907 109.373 32.7103C109.354 32.73 109.338 32.7533 109.328 32.7788C109.318 32.8043 109.313 32.8316 109.313 32.8591L109.33 34.3758C109.331 34.4293 109.352 34.4804 109.391 34.518C109.429 34.5556 109.48 34.5767 109.534 34.5767L112.176 34.5492C112.23 34.5476 112.281 34.5664 112.319 34.6015C112.422 34.6988 112.474 34.829 112.476 34.9924Z" fill="white"/>
<path d="M119.019 34.9786C119.008 36.5393 120.34 37.6294 121.882 37.211C121.952 37.1926 122.246 37.0467 122.766 36.7733C122.875 36.7165 123.001 36.702 123.12 36.7324C123.24 36.7629 123.344 36.8362 123.412 36.9385L123.423 36.955C123.456 37.0028 123.478 37.0566 123.489 37.1131C123.5 37.1696 123.5 37.2278 123.489 37.2843C123.478 37.3408 123.456 37.3946 123.424 37.4424C123.391 37.4903 123.35 37.5314 123.302 37.5633C121.04 39.0552 117.962 37.8606 117.987 34.9703C118.012 32.0773 121.108 30.9377 123.346 32.4682C123.394 32.5009 123.434 32.5428 123.466 32.5913C123.497 32.6398 123.518 32.694 123.529 32.7508C123.539 32.8076 123.538 32.8659 123.525 32.9222C123.513 32.9786 123.49 33.032 123.456 33.0792L123.445 33.0958C123.375 33.1968 123.27 33.2684 123.15 33.2968C123.03 33.3253 122.904 33.3086 122.796 33.2499C122.282 32.9673 121.99 32.8159 121.92 32.7957C120.384 32.3498 119.033 33.4178 119.019 34.9786Z" fill="white"/>
<path d="M128.25 34.8001C128.277 34.374 128.389 33.9575 128.581 33.5744C128.772 33.1912 129.039 32.8489 129.366 32.567C129.693 32.2852 130.074 32.0692 130.487 31.9315C130.9 31.7938 131.337 31.737 131.773 31.7644C132.653 31.8198 133.475 32.2147 134.059 32.8623C134.644 33.5099 134.941 34.3572 134.887 35.2177C134.86 35.6437 134.748 36.0602 134.556 36.4434C134.365 36.8265 134.098 37.1688 133.771 37.4507C133.444 37.7326 133.063 37.9485 132.65 38.0863C132.237 38.224 131.8 38.2807 131.364 38.2533C130.484 38.1979 129.662 37.803 129.077 37.1554C128.493 36.5078 128.196 35.6606 128.25 34.8001ZM133.881 35.0006C133.881 34.3866 133.637 33.7978 133.203 33.3637C132.768 32.9295 132.18 32.6856 131.566 32.6856C131.262 32.6856 130.961 32.7455 130.68 32.8618C130.399 32.9782 130.144 33.1487 129.929 33.3637C129.714 33.5786 129.543 33.8338 129.427 34.1147C129.311 34.3956 129.251 34.6966 129.251 35.0006C129.251 35.3046 129.311 35.6056 129.427 35.8865C129.543 36.1674 129.714 36.4226 129.929 36.6375C130.144 36.8525 130.399 37.023 130.68 37.1394C130.961 37.2557 131.262 37.3156 131.566 37.3156C132.18 37.3156 132.768 37.0717 133.203 36.6375C133.637 36.2034 133.881 35.6146 133.881 35.0006Z" fill="white"/>
<path d="M150.289 35.0006C150.282 33.1068 150.278 32.0654 150.278 31.8764C150.278 31.8486 150.289 31.822 150.309 31.8024C150.328 31.7828 150.355 31.7718 150.383 31.7718L154.41 31.7332C154.466 31.7329 154.521 31.7436 154.573 31.7648C154.625 31.786 154.672 31.8173 154.711 31.8567C154.751 31.8962 154.782 31.9431 154.803 31.9947C154.824 32.0463 154.834 32.1015 154.834 32.1571L154.831 32.259C154.83 32.3542 154.791 32.4451 154.724 32.5124C154.657 32.5797 154.566 32.6182 154.47 32.6196L151.503 32.6471C151.476 32.6475 151.448 32.6532 151.423 32.6641C151.398 32.6749 151.375 32.6906 151.356 32.7103C151.337 32.73 151.322 32.7533 151.311 32.7788C151.301 32.8043 151.296 32.8316 151.297 32.8591L151.31 34.3647C151.311 34.4183 151.333 34.4694 151.371 34.507C151.409 34.5446 151.461 34.5657 151.514 34.5657L154.14 34.5409C154.193 34.5401 154.243 34.5588 154.28 34.5932C154.383 34.6886 154.436 34.818 154.437 34.9813C154.437 35.1447 154.386 35.275 154.283 35.3722C154.246 35.4077 154.196 35.4274 154.143 35.4273L151.52 35.4245C151.466 35.4245 151.415 35.4456 151.377 35.4832C151.338 35.5208 151.317 35.5719 151.316 35.6255L151.313 37.1311C151.313 37.1866 151.335 37.2398 151.374 37.2791C151.414 37.3183 151.467 37.3404 151.522 37.3404L154.49 37.3431C154.586 37.3431 154.678 37.3809 154.747 37.4484C154.815 37.5159 154.854 37.6076 154.856 37.7037L154.859 37.8055C154.859 37.8612 154.849 37.9164 154.828 37.968C154.807 38.0196 154.776 38.0665 154.736 38.1059C154.697 38.1454 154.65 38.1767 154.598 38.1979C154.546 38.2191 154.491 38.2298 154.435 38.2295L150.41 38.2239C150.383 38.224 150.357 38.2133 150.337 38.1943C150.318 38.1753 150.306 38.1494 150.306 38.1221C150.304 37.9331 150.298 36.8926 150.289 35.0006Z" fill="white"/>
</svg>
