<svg width="530" height="657" viewBox="0 0 530 657" fill="none" xmlns="http://www.w3.org/2000/svg">
<mask id="mask0_120_6" style="mask-type:alpha" maskUnits="userSpaceOnUse" x="0" y="0" width="530" height="657">
<rect width="530" height="657" fill="#D9D9D9"/>
</mask>
<g mask="url(#mask0_120_6)">
<path d="M494.533 53.0292C453.607 82.8457 383.742 134.729 284.939 208.678C271.539 218.757 263.751 221.964 246.342 221.792C179.646 220.99 110.717 220.914 39.5545 221.563C15.5792 221.792 -5.89557 225.858 -24.8697 233.761C-48.4633 243.553 -51.3266 270.869 -52.1284 296.868C-53.2737 332.525 -53.2928 370.245 -52.1857 410.025C-51.8803 422.242 -49.666 433.905 -45.5428 445.015C-44.7525 447.107 -44.6719 449.4 -45.3135 451.542C-45.9551 453.684 -47.2832 455.556 -49.0933 456.869L-173.475 548.495C-174.253 549.068 -175.14 549.479 -176.081 549.7C-177.022 549.922 -177.998 549.951 -178.951 549.785C-179.904 549.619 -180.813 549.262 -181.623 548.735C-182.434 548.208 -183.13 547.523 -183.668 546.719C-214.706 500.849 -212.244 456.812 -213.332 387.749C-214.592 310.898 -216.654 227.232 -185.844 160.632C-155.322 94.6617 -36.7239 96.1506 25.2952 94.6616C116.272 92.4855 198.029 92.3901 270.565 94.3753C293.93 94.9861 316.817 97.1241 339.227 100.789C345.448 101.838 351.839 101.185 357.724 98.8994L491.326 47.1882C492.08 46.9254 492.903 46.9383 493.649 47.2247C494.395 47.5111 495.015 48.0525 495.399 48.7527C495.784 49.453 495.907 50.2667 495.749 51.0496C495.59 51.8325 495.159 52.5339 494.533 53.0292Z" fill="black" fill-opacity="0.05"/>
<path d="M-233.546 656.499C-233.839 656.516 -234.131 656.438 -234.377 656.277C-234.623 656.117 -234.811 655.881 -234.914 655.606C-235.016 655.33 -235.028 655.029 -234.947 654.746C-234.865 654.464 -234.695 654.215 -234.462 654.036C-156.657 596.694 -84.7308 543.169 -18.684 493.462C-5.55103 483.612 10.0445 479.05 28.1024 479.776C89.9878 482.334 155.767 482.677 225.441 480.806C245.179 480.272 263.446 477.313 280.245 471.93C301.318 465.211 312.752 451.219 314.547 429.954C314.547 429.725 315.616 410.98 317.754 373.719C320.331 329.796 318.899 291.027 310.137 252.143C309.951 251.304 310.009 250.43 310.303 249.628C310.598 248.825 311.117 248.128 311.798 247.619L435.722 156.395C436.561 155.775 437.523 155.342 438.542 155.124C439.562 154.906 440.617 154.908 441.636 155.131C442.655 155.353 443.615 155.79 444.452 156.413C445.288 157.036 445.983 157.83 446.488 158.743C462.408 187.681 471.876 218.929 474.892 252.487C481.382 324.909 479.74 396.816 469.967 468.208C466.015 497.242 455.765 533.377 433.889 559.605C411.269 586.691 357.783 599.061 322.793 602.668C232.198 611.888 137.423 610.571 46.7138 609.999C3.478 609.712 -47.3743 605.36 -83.4519 603.356C-87.04 603.167 -90.6293 603.733 -93.9888 605.016C-131.784 619.677 -172.73 635.768 -216.824 653.292C-220.948 654.933 -226.521 656.002 -233.546 656.499Z" fill="black" fill-opacity="0.05"/>
</g>
</svg>
